<svg width="124" height="297" viewBox="0 0 124 297" fill="none" xmlns="http://www.w3.org/2000/svg">
<path d="M123.102 283.123L0.210938 296.319V272.3L77.7856 265.527L0.210938 258.614L0.210938 235.712L77.7856 229.148L0.210938 222.585V198.286L123.102 211.692V241.158L63.9604 247.303L123.102 253.168V283.123ZM123.102 190.955H0.210938V166.516H44.1304V154.925H0.210938V130.487H123.102V154.925H67.3818V166.516H123.102L123.102 190.955ZM123.102 119.594H0.210938V70.438H23.9512V94.5972H47.9009V71.4155H71.0127V94.5972H99.1519V68.832H123.102V119.594ZM123.102 60.6626H0.210938V35.3862L59.0728 24.0747H0.210938L0.210938 0.334473H123.102V24.354L61.6563 36.6431H123.102V60.6626Z" fill="white" fill-opacity="1"/>
</svg>
